{"title":"Megamind-AC3-XviD-DVDRip 2010 TBS","uid":6165323,"size":1568990651,"categoryP":"video","categoryS":"movies","magnet":"?xt=urn:btih:af34ad66aa8f83368d4030a7670e3a5862d36878&amp;dn=Megamind-AC3-XviD-DVDRip+2010+TBS&amp;tr=udp%3A%2F%2Ftracker.openbittorrent.com%3A80&amp;tr=udp%3A%2F%2Fopen.demonii.com%3A1337&amp;tr=udp%3A%2F%2Ftracker.coppersurfer.tk%3A6969&amp;tr=udp%3A%2F%2Fexodus.desync.com%3A6969","seeders":0,"leechers":1,"uploader":"FatFreddy30","files":-1,"time":1297364976,"description":"The supervillain Megamind finally conquers his nemesis, the hero Metro Man... but finds his life pointless without a hero to fight...\n &lt;a href=&quot;\nhttp://www.imdb.com/title/tt1001526/&quot; rel=&quot;nofollow&quot; target=&quot;_NEW&quot;&gt;\nhttp://www.imdb.com/title/tt1001526/&lt;/a&gt;\n\nSubs: Dutch, English (srt).\n\n\nWanneer de beruchte schurk Megamind per ongeluk zijn aartsrivaal Metro Man vermoord, verliest hij de zin van het leven. Zijn hele leven zat hij achter z'n vijand aan en de vijand achter hem. Nu dit domme ongelukje zijn leven veranderd heeft, creÃƒÂ«ert hij een nieuwe superheld genaamd Titan. Probleem is dat deze ook de nummer ÃƒÂ©ÃƒÂ©n schurk van de stad wil zijn. Hoe moet het nu?\n &lt;a href=&quot;\nhttp://www.moviemeter.nl/film/58240&quot; rel=&quot;nofollow&quot; target=&quot;_NEW&quot;&gt;\nhttp://www.moviemeter.nl/film/58240&lt;/a&gt;\n\nOndertitels: Engels, Nederlands (srt).\n\nGeneral\nComplete name                    : Megamind-AC3-XviD-DVDRip 2010 TBS\\Megamind-AC3-XviD-DVDRip 2010 TBS.avi\nFormat                           : AVI\nFormat/Info                      : Audio Video Interleave\nFile size                        : 1.46 GiB\nDuration                         : 1h 35mn\nOverall bit rate                 : 2 188 Kbps\nWriting application              : VirtualDubMod 1.5.4.1 (build 2178/release)\nWriting library                  : VirtualDubMod build 2178/release\nSource                           : Megamind.DVDR-TWiZTED \n\nVideo\nID                               : 0\nFormat                           : MPEG-4 Visual\nFormat profile                   : Simple@L3\nFormat settings, BVOP            : No\nFormat settings, QPel            : No\nFormat settings, GMC             : No warppoints\nFormat settings, Matrix          : Default (H.263)\nCodec ID                         : XVID\nCodec ID/Hint                    : XviD\nDuration                         : 1h 35mn\nBit rate                         : 1 731 Kbps\nWidth                            : 720 pixels\nHeight                           : 304 pixels\nDisplay aspect ratio             : 2.35:1\nFrame rate                       : 23.976 fps\nResolution                       : 8 bits\nColorimetry                      : 4:2:0\nScan type                        : Progressive\nBits/(Pixel*Frame)               : 0.330\nStream size                      : 1.16 GiB (79%)\nWriting library                  : XviD 1.1.2 (UTC 2006-11-01)\n\nAudio\nID                               : 1\nFormat                           : AC-3\nFormat/Info                      : Audio Coding 3\nCodec ID                         : 2000\nDuration                         : 1h 35mn\nBit rate mode                    : Constant\nBit rate                         : 448 Kbps\nChannel(s)                       : 6 channels\nChannel positions                : Front: L C R, Surround: L R, LFE\nSampling rate                    : 48.0 KHz\nStream size                      : 306 MiB (20%)\nAlignment                        : Split accross interleaves\nInterleave, duration             : 42 ms (1.00 video frame)\nInterleave, preload duration     : 500 ms\n\nThanks to SimplY ReleaseS TopperS for the Dutch subs.\n\nBlackbeard  TBS.","torrent":{"xt":"urn:btih:af34ad66aa8f83368d4030a7670e3a5862d36878","amp;dn":"Megamind-AC3-XviD-DVDRip+2010+TBS","amp;tr":["udp%3A%2F%2Ftracker.openbittorrent.com%3A80","udp%3A%2F%2Fopen.demonii.com%3A1337","udp%3A%2F%2Ftracker.coppersurfer.tk%3A6969","udp%3A%2F%2Fexodus.desync.com%3A6969"],"infoHash":"af34ad66aa8f83368d4030a7670e3a5862d36878","infoHashBuffer":{"type":"Buffer","data":[175,52,173,102,170,143,131,54,141,64,48,167,103,14,58,88,98,211,104,120]},"announce":[],"urlList":[]}}